<svg xmlns="http://www.w3.org/2000/svg" width="96" height="96"><path fill="#000" d="M96 55.919V40.081c-3.104-.646-6.545-1.228-10.255-1.739a38.697 38.697 0 00-4.217-10.189c2.281-3.012 4.307-5.865 6.013-8.494l-11.199-11.2c-2.629 1.706-5.482 3.731-8.493 6.013a38.752 38.752 0 00-10.175-4.213C57.157 6.517 56.571 3.065 55.919 0H40.081c-.652 3.065-1.238 6.517-1.755 10.259a38.752 38.752 0 00-10.175 4.213c-3.01-2.281-5.864-4.307-8.493-6.013L8.459 19.658c1.706 2.629 3.731 5.482 6.013 8.494a38.731 38.731 0 00-4.213 10.174C6.517 38.843 3.065 39.429 0 40.081v15.838c3.065.653 6.517 1.238 10.259 1.755a38.752 38.752 0 004.213 10.175c-2.281 3.011-4.307 5.864-6.013 8.493l11.199 11.199c2.629-1.706 5.483-3.731 8.493-6.013a38.752 38.752 0 0010.175 4.213c.517 3.742 1.103 7.193 1.755 10.259h15.838c.652-3.065 1.238-6.517 1.755-10.259a38.694 38.694 0 0010.188-4.221c2.985 2.261 5.829 4.282 8.48 6.021l11.199-11.199c-1.738-2.651-3.76-5.495-6.021-8.48a38.727 38.727 0 004.225-10.203c3.71-.513 7.151-1.094 10.255-1.74zM48 72c-13.255 0-24-10.745-24-24s10.745-24 24-24 24 10.745 24 24-10.745 24-24 24z"/></svg>