<svg width="512" height="512" xmlns:xlink="http://www.w3.org/1999/xlink" xmlns="http://www.w3.org/2000/svg"><defs><radialGradient xlink:href="#prefix__b" id="prefix__a" gradientUnits="userSpaceOnUse" gradientTransform="matrix(1.03544 -.1004 .07091 .73126 67.906 39.691)" cx="325" cy="815.798" fx="325" fy="815.798" r="300.15"/><radialGradient xlink:href="#prefix__b" id="prefix__c" gradientUnits="userSpaceOnUse" gradientTransform="matrix(1.03544 -.1004 .07091 .73126 67.906 39.691)" cx="325" cy="815.798" fx="325" fy="815.798" r="300.15"/><linearGradient id="prefix__b"><stop offset="0" stop-color="#ae38ad"/><stop offset="1" stop-color="#530058"/></linearGradient></defs><circle cx="256.297" cy="256.297" r="255.29" fill="#d51a7e"/><path d="M199.02 490.085c4.165-16.525 21.805 5.944 19.759-16.536 9.162.688 12.494 25.44 27.636 29.781 1.538-5.585-6.785-45.898 3.466-23.632.543 12.378 15.382 34.9 10.546 9.93-2.466-10.75-4.912-33.646 3.17-10.539 1.339 25.055 36.91 18.242 39.107-1.655 10.988-7.133 5.44 18.631 20.841 5.623 17.126 1.25 7.64-13.306 3.664-14.71 15.373-14.965 26.297 14.133 37.896-4.386 6.91 8.97 3.321 25.16 15.456 7.276 5.512-23.177 45.621-22.37 34.952-51.694-2.25-21.745 29.43 20.38 23.36-2.713-10.822-23.006-19.842-39.604-38.178-55.15 15.32 11.461 12.663.996 3.624-8.07 2.158-7.803 5.956-30.42-3.622-45.708-14.906-1.801-11.803-12.564-3.68-14.499 11.028 19.312 5.7-30.84-10.94-31.47-16.88-3.83-11.114-32.738 2.27-13.533 9.548 12.704-2.637-37.272 11.616-10.614 7.565 19.68 13.551 49.252 41.811 38.94-7.723-14.46-17.594-33.946-17.19-53.056 9.736 12.782 22.037 23.12 34.23 33.46 7.622-17.085 14.276 10.797 26.045 4.106-5.768-14.541 6.207-21.732 13.286-7.066 13.633-1.966-11.553-19.073 6.533-7.09 2.461-9.526-11.242-33.392-16.962-46.623-23.264-23.407-43.672-49.37-68.338-71.177 4.703-20.76-19.738-34.75-27.54-53.079-6.414-26.055-28.921-43.222-55.877-41.343-21.295-9.407-44.913-12.316-66.956-19.669-20.736-15.923-44.447-10.432-66.122.139-20.68-1.877-52.074 17.144-37.22 37.099 4.448 3.232 30.234 13.732 18.645 1.034 14.25 8.417 10.317-13.364 21.335-.295 22.563-5.45 43.85-13.363 68.177-4.55 21.45 6.405 49.388 3.103 65.733 19.829 5.283 13.056 23.599 22.33 18.323 38.061-.43 21.567-16.46 45.032-.805 64.238 13.26 18.648 18.381 41.156 4.679 61.09 1.482 18.274 2.443 40.41-6.231 54.644-14.905-5.928-3.343-6.805-.875-13.54-14.958 5.916-29.384 37.78-46.878 30.816.891 19.386 27.95 20.681 28.521 31.378-30.041-21.196 12.886 23.872-9.928 32.344-9.316 13.598-1.455-26.26-14.826-4.189.69 10.521-.414 22.642-7.391 6.45-7.447-9.88-20.789-28.007-29.486-16.779-21.305-5.517-53.291 6.193-67.763-11.19-9.23-7.104-22.641 2.872-32.554-3.465 1.36 9.846 38.477 13.465 10.246 17.425-14.35-2.084-30.936-15.053-30.393 1.718-8.167 3.859-24.313 15.475-15.694-5.39-6.2-19.193-13.016 27.931-14.747.273-.113-21.19-22.536-17.482-22.716 1.48-15.022 20.17-50.77 32.04-34.779 66.32 0 0 38.798-25.01 28.402 6.803-9.66 26.257 17.633 2.795 21.19 9.074-11.137 11.038-3.789 38.412 12.197 20.438 7.804 9.09-1.206 21.7 14.608 20.195 8.868 6.853 18.218 9.341 18.218 9.341s-3.77-55.335 13.634-25.436c10.687 6.271-18.169 19.6 1.029 15.97 8.04-7.933 14.779-44.525 27.155-22.153 1.53 19.03-23.683 15.15-15.617 43.954 0 0 8.075-2.986 11.948-8.23zM93.7 351.135c9.71-7.742 7.293-26.579-4.59-10.98-6.488 5.636-6.398 18.694 4.59 10.98zm-19.776-7.958c6.73-21.245 25.691-13.055 39.444-12.062 1.167-12.183 12.784-25.094 3.122-31.661 17.403-13.33-20.838-13.892-.065-21.216 15.053-1.978-3.105-12.39-3.788-10.276 18.372-19.195 8.456-48.902 12.562-72.783 7.51-25.358 4.073-52.2 5.946-77.933 7.846-17.82 18.751-33.975 31.736-48.444 13.968-.608 19.41-12.862 2.36-10.142-23.657-3.32-40.162 21.041-57.838 33.399-8.505 7.77-24.113 10.454-12.176 19.903-9.03 12.01-38.593 38.004-7.663 41.827 12.257 1.09-40.121 11.853-22.49 24.52 3.091-10.336 21.733-25.118 9.063-4.995-11.257 20.085-34.74 29.322-34.994 55.391-3.875 9.227 18.385-2.737 2.682 10.961-16.105 5.193-14.034 54.904 1.171 24.648 15.771-6.527 3.446-39.473 18.547-35.627 7.596 21.164-23.72 32.58-15.126 51.406 11.704-13.2 30.61-30.991 44.871-22.035-13.944 12.5-5.938 21.006 9.179 11.115-13.526 7.345-9.172 16.409 4.442 12.673 4.135 17.941-28.087 7.376-24.45 22.67-5.29 24.171 47.865-15.865 29.314 13.856-14.01-11.5-13.523 12.238-29.429 10.685-5.881-.728-17.412 22.48-6.42 14.12zm251.228-46.925c19.911-17.88 22.754-40.915 31.137-65.04 17.585-22.303 4.72-46.336-8.091-67.04-8.085-9.792-.766-21.152.51-31.904 10.391-23.93 2.727-44.762-13.926-62.903-6.524-9.948-23.442-5.813-33.394-10.884-26.934-3.163-56.389-14.617-81.919-1.217-30.714 3.985-63.495 17.182-76.877 47.27-5.838 10.086-11.671 25.742 3.226 15.668 16.496 18.642-12.423 49.161-.205 60.294 20.98-21.596 45.199-9.679 65.576 3.866 18.499 1.536-1.972 57.314 2.01 24.378-6.431 18.857-7.017-4.384-11.668-.702-6.301 1.247-12.64-6.082-20.635 3.612-7.986-4.946-20.229-9.37-14.716 2.824 11.563.767 43.848-7.519 18.39 7.424-15.697 10.842-35.661-17.388-31.204 3.988-25.77-13.348-3.15 26.192-4.137 37.806 2.775 25.986 35.121 9.6 39.82-7.152 6.667-10.564 17.069-22.993 7.121-3.797 8.196-1.46 12.794-24.91 9.13-4.27 4.525 13.488 21.834 16.959 31.714 10.069 13.935 13.636 27.322-.954 19.301-16.395 13.353 5.627 3.743 24.918-1.263 29.262 19.012 15.117 44.352 23.116 67.962 26.708l2.138-1.865zm-51.285-76.309c-25.237-8.735 5.245-7.531 11.33-1.28-3.316 2.143-7.611 2.365-11.33 1.28zm43.473-6.864c-20.577-12.9-34.63.66-56.543-3.35-16.035-.307-24.066-21.807-41.396-28.729 20.543-6.469 41.99-15.049 63.727-17.251 16.819 4.1 52.609 24.76 36.87 42.924-3.954 3.189 21.225 7.006 1.283 6.891l-3.941-.485zm-47.785-6.97c1.449-10.224-17.455 5.802 0 0zm46.17-7.836c-7.713-19.55-49.238-23.516-49.949-7.502 16.615 1.18 33.956 11.779 49.95 7.502zm-122.024 73.68c2.621-9.754-.558-24.6-8.09-6.279-10.588 10.924 1.296 6.182 8.09 6.28zm-20.26-77.236c31.116-7.517-46.01-7.55-15.789.976 5.265.874 10.626.119 15.79-.976z" fill="#fefefe"/></svg>