<svg width="32.579" height="31.775" xmlns="http://www.w3.org/2000/svg"><path fill-rule="evenodd" clip-rule="evenodd" fill="#fff" d="M16.289 0C7.294 0 0 7.294 0 16.291c0 7.196 4.667 13.302 11.141 15.456.814.149 1.112-.354 1.112-.785 0-.387-.014-1.411-.022-2.771-4.531.984-5.487-2.184-5.487-2.184-.741-1.882-1.809-2.383-1.809-2.383-1.479-1.011.112-.99.112-.99 1.635.115 2.495 1.679 2.495 1.679 1.453 2.489 3.813 1.771 4.741 1.354.148-1.053.569-1.771 1.034-2.178-3.617-.411-7.42-1.809-7.42-8.051 0-1.778.635-3.232 1.677-4.371-.167-.412-.727-2.068.16-4.311 0 0 1.368-.438 4.479 1.67a15.602 15.602 0 014.078-.549c1.383.006 2.777.188 4.079.549 3.109-2.108 4.475-1.67 4.475-1.67.889 2.242.33 3.898.162 4.311 1.044 1.139 1.674 2.593 1.674 4.371 0 6.258-3.809 7.635-7.438 8.038.586.503 1.106 1.497 1.106 3.017 0 2.178-.021 3.935-.021 4.469 0 .436.294.942 1.121.783 6.467-2.158 11.13-8.26 11.13-15.454C32.58 7.294 25.286 0 16.289 0z"/></svg>